<svg width="25" height="25" viewBox="0 0 25 25" fill="none" xmlns="http://www.w3.org/2000/svg">
<path fill-rule="evenodd" clip-rule="evenodd" d="M12.4998 1.35143C6.35113 1.35143 1.35114 6.35278 1.35114 12.5001C1.35114 18.6476 6.35113 23.6487 12.4998 23.6487C14.2376 23.6487 15.916 23.2487 17.489 22.4595C17.6214 22.3928 17.7728 22.3714 17.9187 22.3998L23.4484 23.4676L22.3079 18.1258C22.2755 17.9712 22.2971 17.8101 22.3728 17.6706C23.2187 16.0574 23.6484 14.3176 23.6484 12.5001C23.6484 6.35278 18.6457 1.35143 12.4998 1.35143ZM24.3216 25C24.2811 25 24.2378 24.9962 24.1946 24.9878L17.8865 23.7695C16.1838 24.5859 14.373 25 12.5 25C5.60811 25 0 19.3927 0 12.5C0 5.6073 5.60811 0 12.5 0C19.3919 0 25 5.6073 25 12.5C25 14.4565 24.5568 16.3322 23.6811 18.0789L24.9838 24.1835C25.0297 24.4051 24.9649 24.6359 24.8054 24.7976C24.6757 24.9284 24.5027 25 24.3216 25V25Z" fill="black"/>
</svg>
