<svg width="25" height="25" viewBox="0 0 25 25" fill="none" xmlns="http://www.w3.org/2000/svg">
<path fill-rule="evenodd" clip-rule="evenodd" d="M11.0357 10.8588L12.8003 22.367L22.7285 2.651L11.0357 10.8588ZM22.3104 1.35467H2.16246L10.4459 9.6831L22.3104 1.35467ZM24.3943 0.000158112H0.591777C0.345323 0.000158112 0.124935 0.174877 0.0372539 0.438446C-0.0480574 0.702286 0.0159261 0.999715 0.200767 1.18608L9.83621 10.8728L11.9169 24.4397C11.9595 24.7206 12.1515 24.9401 12.3979 24.9896C12.4311 24.9967 12.4666 24.9999 12.4998 24.9999C12.7084 24.9999 12.905 24.8732 13.0141 24.6608L24.9221 1.01543C24.9969 0.865079 25.018 0.689937 24.9847 0.52566C24.9707 0.455895 24.9468 0.387514 24.9123 0.323157C24.7985 0.110594 24.5981 -0.00487885 24.3943 0.000158112Z" fill="black"/>
</svg>
