<svg width="25" height="25" viewBox="0 0 25 25" fill="none" xmlns="http://www.w3.org/2000/svg">
<path fill-rule="evenodd" clip-rule="evenodd" d="M7.07963 1.77221C5.62047 1.74602 4.2112 2.36332 3.16813 3.48568C0.905133 5.97483 1.13529 10.2884 3.65905 13.1255L3.71801 13.1929L12.4979 22.8564L21.2869 13.1891L21.3424 13.1255C23.8662 10.281 24.0861 5.96735 21.8299 3.48942C19.5737 1.01149 15.6464 1.24968 13.0693 4.02317C12.7462 4.34616 12.2519 4.34616 11.9287 4.02317C10.6408 2.6065 8.90045 1.79839 7.07963 1.77221M12.498 25C12.2826 25.0012 12.0774 24.9077 11.9254 24.7406L2.55146 14.4298L2.48343 14.3513C-0.629892 10.8395 -0.853244 5.39482 2.02426 2.23101C4.74303 -0.759463 9.30077 -0.717063 12.5014 2.19858C15.6986 -0.717063 20.2598 -0.755722 22.9751 2.23101C25.8515 5.39482 25.6384 10.842 22.4955 14.37L22.4321 14.4473L13.0694 24.7406C12.9175 24.9077 12.7123 25.0012 12.498 25" fill="black"/>
</svg>
