<svg width="105" height="79" fill="none" xmlns="http://www.w3.org/2000/svg"><path d="M36.168 69h-2.806V.05h2.806V69zm-7.106 0H27.66V.05h1.402V69zm15.66 0h-1.404V.05h1.404V69zm-2.852 0h-1.403V.05h1.403V69zm-24.167 0h-1.448V.05h1.448V69zm4.254 0h-1.403V.05h1.403V69zm-7.106 0H12V0h2.851v69zm32.722 0H46.17V.05h1.403V69zm29.871 0h-2.852V.05h2.852V69zm8.554 0h-4.255V.05h4.255V69zm2.85 0H87.4V.05h1.448V69zm4.255 0h-2.851V0h2.85v69zm-25.616 0h-2.851V.05h2.851V69zm5.703 0h-2.852V.05h2.852V69zm-11.406 0h-2.85V.05h2.85V69zm-7.105 0h-2.852V.05h2.852V69zM3.768 74.296H2.176V78h-.568v-3.704H.016v-.504h3.752v.504zm3.901 1.528c.57.133.856.477.856 1.032 0 .368-.136.65-.408.848-.272.197-.677.296-1.216.296H4.99v-4.208h1.856c.48 0 .856.093 1.128.28.272.187.408.453.408.8 0 .23-.064.427-.192.592-.122.16-.296.28-.52.36zm-2.128-.16h1.264c.326 0 .574-.061.744-.184a.612.612 0 00.264-.536c0-.235-.088-.41-.264-.528-.17-.117-.418-.176-.744-.176H5.541v1.424zm1.336 1.888c.363 0 .635-.059.816-.176.182-.117.272-.301.272-.552 0-.25-.082-.435-.248-.552-.165-.123-.426-.184-.784-.184H5.541v1.464h1.336zm5.115.488c-.405 0-.77-.09-1.096-.272a2.043 2.043 0 01-.768-.768 2.178 2.178 0 01-.28-1.104c0-.41.094-.779.28-1.104.187-.325.443-.579.768-.76a2.219 2.219 0 011.096-.272c.406 0 .771.09 1.096.272.326.181.58.435.76.76.187.325.28.693.28 1.104 0 .41-.093.779-.28 1.104a1.984 1.984 0 01-.76.768c-.325.181-.69.272-1.096.272zm0-.504c.3 0 .566-.067.8-.2a1.44 1.44 0 00.56-.584c.134-.25.2-.536.2-.856 0-.32-.066-.605-.2-.856a1.388 1.388 0 00-.56-.576 1.542 1.542 0 00-.8-.208c-.298 0-.568.07-.808.208a1.456 1.456 0 00-.56.576c-.133.25-.2.536-.2.856 0 .32.067.605.2.856.14.25.326.445.56.584.24.133.51.2.808.2zm3.75-3.744h.568v3.344l2.808-3.344h.504V78h-.568v-3.344L16.254 78h-.512v-4.208zm1.912-.608c-.362 0-.65-.09-.864-.272-.213-.181-.322-.437-.328-.768h.408c.006.208.08.376.224.504.144.123.331.184.56.184.23 0 .416-.061.56-.184a.656.656 0 00.232-.504h.408c-.005.33-.117.587-.336.768-.213.181-.501.272-.864.272zm8.25 4.856c-.416 0-.79-.09-1.12-.272a1.985 1.985 0 01-.768-.76 2.223 2.223 0 01-.28-1.112c0-.41.093-.779.28-1.104.187-.325.443-.579.768-.76a2.29 2.29 0 011.12-.272c.363 0 .685.072.968.216.288.139.515.344.68.616l-.424.288a1.296 1.296 0 00-.528-.464 1.534 1.534 0 00-.696-.16c-.304 0-.579.07-.824.208a1.44 1.44 0 00-.568.576c-.133.25-.2.536-.2.856 0 .325.067.613.2.864.139.245.328.437.568.576.245.133.52.2.824.2.25 0 .483-.05.696-.152.213-.101.39-.256.528-.464l.424.288c-.165.272-.392.48-.68.624-.288.139-.61.208-.968.208zm6.324-4.248V78h-.568v-1.752a3.54 3.54 0 01-1.432.32c-.507 0-.902-.115-1.184-.344-.283-.235-.424-.584-.424-1.048v-1.384h.568v1.352c0 .315.101.555.304.72.202.16.482.24.84.24.394 0 .837-.104 1.328-.312v-2h.568zm3.46-.032c.55 0 .971.139 1.265.416.293.272.44.677.44 1.216V78h-.544v-.656a1.29 1.29 0 01-.568.512 1.948 1.948 0 01-.88.184c-.47 0-.843-.112-1.12-.336a1.085 1.085 0 01-.416-.888c0-.357.128-.645.384-.864.261-.219.674-.328 1.24-.328h1.336v-.256c0-.363-.102-.637-.304-.824-.203-.192-.499-.288-.888-.288-.267 0-.523.045-.768.136a1.88 1.88 0 00-.632.36l-.256-.424c.213-.181.47-.32.768-.416.299-.101.613-.152.944-.152zm-.2 3.832c.32 0 .596-.072.825-.216.23-.15.4-.363.512-.64v-.688h-1.32c-.72 0-1.08.25-1.08.752 0 .245.093.44.28.584.187.139.448.208.784.208zm5.577.448c-.416 0-.79-.09-1.12-.272a1.983 1.983 0 01-.768-.76 2.222 2.222 0 01-.28-1.112c0-.41.093-.779.28-1.104.187-.325.443-.579.768-.76a2.29 2.29 0 011.12-.272c.363 0 .685.072.968.216.288.139.514.344.68.616l-.424.288a1.297 1.297 0 00-.528-.464 1.534 1.534 0 00-.696-.16c-.304 0-.579.07-.824.208a1.44 1.44 0 00-.568.576c-.134.25-.2.536-.2.856 0 .325.066.613.2.864.139.245.328.437.568.576.245.133.52.2.824.2.25 0 .483-.05.696-.152.213-.101.39-.256.528-.464l.424.288a1.64 1.64 0 01-.68.624c-.288.139-.61.208-.968.208zm6.03-3.744h-1.592V78h-.568v-3.704h-1.592v-.504h3.752v.504zm4.403-.504V78h-.568v-3.704h-2.016l-.056 1.04c-.043.875-.144 1.547-.304 2.016-.16.47-.445.704-.856.704-.112 0-.248-.021-.408-.064l.04-.488c.096.021.163.032.2.032a.536.536 0 00.496-.304c.112-.203.187-.453.224-.752.037-.299.07-.693.096-1.184l.072-1.504h3.08zm2.015 0h.568v3.344l2.808-3.344h.504V78h-.568v-3.344L54.025 78h-.512v-4.208zm8.587 2.032c.571.133.856.477.856 1.032 0 .368-.136.65-.408.848-.272.197-.677.296-1.215.296H59.42v-4.208h1.856c.48 0 .856.093 1.128.28.272.187.408.453.408.8 0 .23-.063.427-.191.592-.123.16-.297.28-.52.36zm-2.128-.16h1.264c.326 0 .574-.061.745-.184a.612.612 0 00.264-.536c0-.235-.088-.41-.264-.528-.171-.117-.42-.176-.745-.176h-1.264v1.424zm1.337 1.888c.362 0 .634-.059.816-.176.18-.117.272-.301.272-.552 0-.25-.083-.435-.248-.552-.166-.123-.427-.184-.785-.184h-1.392v1.464h1.337zm5.147-2.272c.528.005.93.123 1.208.352.277.23.416.56.416.992 0 .448-.15.792-.448 1.032-.299.24-.726.357-1.28.352L64.688 78v-4.208h.568v1.472l1.2.016zm2.328-1.488h.568V78h-.568v-4.208zm-2.464 3.784c.389.005.682-.072.88-.232.202-.165.304-.405.304-.72 0-.31-.099-.539-.296-.688-.198-.15-.494-.227-.888-.232l-1.064-.016v1.872l1.064.016zm5.049-3.784h.568v3.344l2.808-3.344h.504V78h-.568v-3.344L71.88 78h-.512v-4.208zm1.912-.608c-.363 0-.65-.09-.864-.272-.213-.181-.323-.437-.328-.768h.408c.005.208.08.376.224.504.144.123.33.184.56.184.23 0 .416-.061.56-.184a.655.655 0 00.232-.504h.408c-.005.33-.117.587-.336.768-.213.181-.501.272-.864.272zm8.53.712c.389 0 .735.088 1.04.264.309.17.549.413.72.728.17.31.255.664.255 1.064 0 .41-.09.776-.271 1.096a1.87 1.87 0 01-.745.736c-.32.176-.688.264-1.103.264-.7 0-1.24-.245-1.624-.736-.385-.49-.576-1.168-.576-2.032 0-.901.17-1.592.511-2.072.347-.48.886-.805 1.617-.976l1.887-.432.096.52-1.775.408c-.603.133-1.046.37-1.329.712-.282.336-.437.835-.463 1.496.17-.325.407-.579.712-.76.303-.187.653-.28 1.047-.28zm-.089 3.68c.294 0 .555-.067.785-.2.234-.139.415-.33.543-.576.134-.245.2-.523.2-.832 0-.31-.064-.581-.192-.816a1.336 1.336 0 00-.544-.544 1.547 1.547 0 00-.791-.2c-.3 0-.566.067-.8.2-.23.128-.411.31-.544.544a1.677 1.677 0 00-.193.816c0 .31.064.587.192.832.134.245.318.437.552.576.235.133.5.2.792.2zm3.722-3.784h.568v3.344l2.808-3.344h.504V78h-.568v-3.344L85.956 78h-.512v-4.208zm9.348 0V78h-.568v-3.704h-2.016l-.056 1.04c-.043.875-.144 1.547-.304 2.016-.16.47-.446.704-.856.704-.112 0-.248-.021-.408-.064l.04-.488c.096.021.162.032.2.032a.536.536 0 00.496-.304c.112-.203.186-.453.224-.752.037-.299.07-.693.096-1.184l.072-1.504h3.08zm5.694 2.28h-3.52c.032.437.2.792.504 1.064.304.267.688.4 1.152.4.262 0 .502-.045.72-.136.22-.096.408-.235.568-.416l.32.368a1.79 1.79 0 01-.704.512 2.339 2.339 0 01-.92.176 2.38 2.38 0 01-1.152-.272 2.027 2.027 0 01-.776-.768 2.179 2.179 0 01-.28-1.104c0-.41.088-.779.264-1.104.182-.325.427-.579.736-.76a2.077 2.077 0 011.056-.272c.39 0 .74.09 1.048.272.31.181.552.435.728.76.176.32.264.688.264 1.104l-.008.176zm-2.032-1.824c-.405 0-.746.13-1.024.392-.272.256-.426.592-.464 1.008h2.984c-.037-.416-.194-.752-.472-1.008-.272-.261-.613-.392-1.024-.392zm6.47.048h-1.592V78h-.568v-3.704h-1.592v-.504h3.752v.504z" fill="#fff"/></svg>