<svg width="107" height="62" fill="none" xmlns="http://www.w3.org/2000/svg"><path d="M37.04 52.294h-2.806V.037h2.806v52.257zm-7.106 0h-1.402V.037h1.402v52.257zm15.66 0H44.19V.037h1.403v52.257zm-2.852 0H41.34V.037h1.404v52.257zm-24.167 0h-1.448V.037h1.448v52.257zm4.254 0h-1.403V.037h1.403v52.257zm-7.106 0h-2.85V0h2.85v52.294zm32.723 0h-1.404V.037h1.404v52.257zm29.87 0h-2.851V.037h2.85v52.257zm8.554 0h-4.255V.037h4.255v52.257zm2.85 0h-1.447V.037h1.448v52.257zm4.255 0h-2.851V0h2.851v52.294zm-25.615 0h-2.852V.037h2.851v52.257zm5.702 0H71.21V.037h2.852v52.257zm-11.405 0h-2.852V.037h2.852v52.257zm-7.107 0H52.7V.037h2.85v52.257zM3.79 56.373H2.187v3.725h-.57v-3.725H.015v-.507H3.79v.507zm3.923 1.537c.573.134.86.48.86 1.037 0 .37-.136.655-.41.853-.274.199-.681.298-1.223.298H5.017v-4.232h1.867c.483 0 .86.094 1.134.282.274.188.41.456.41.804 0 .23-.064.43-.193.596-.123.16-.297.281-.522.362zm-2.14-.161h1.27c.328 0 .577-.062.749-.185.177-.124.265-.303.265-.54 0-.235-.088-.412-.265-.53-.172-.118-.421-.177-.748-.177H5.572v1.432zm1.343 1.898c.365 0 .638-.059.82-.177.183-.118.274-.303.274-.555 0-.252-.083-.437-.25-.555-.165-.123-.428-.185-.788-.185h-1.4v1.472h1.344zm5.144.491c-.408 0-.775-.091-1.102-.273a2.053 2.053 0 01-.772-.773 2.19 2.19 0 01-.282-1.11c0-.413.094-.783.282-1.11.187-.327.445-.582.772-.764a2.225 2.225 0 011.102-.274c.408 0 .775.091 1.102.273.327.183.582.438.764.765.188.327.282.697.282 1.11 0 .413-.094.783-.281 1.11a1.995 1.995 0 01-.765.773 2.225 2.225 0 01-1.102.273zm0-.507c.3 0 .569-.067.805-.2a1.45 1.45 0 00.563-.588c.134-.252.2-.54.2-.861 0-.322-.066-.609-.2-.86a1.396 1.396 0 00-.563-.58 1.55 1.55 0 00-.805-.21c-.3 0-.571.07-.813.21a1.464 1.464 0 00-.563.58 1.806 1.806 0 00-.2.86c0 .322.066.609.2.86.14.253.328.449.564.588.24.134.512.201.812.201zm3.771-3.765h.571v3.363l2.824-3.363h.507v4.232h-.571v-3.363l-2.816 3.363h-.515v-4.232zm1.923-.611c-.365 0-.654-.091-.869-.274-.215-.182-.324-.44-.33-.772h.41a.67.67 0 00.226.507.838.838 0 00.563.185c.23 0 .418-.062.563-.185a.659.659 0 00.233-.507h.41c-.005.332-.117.59-.337.772-.215.183-.504.274-.87.274zm8.296 4.883c-.418 0-.794-.091-1.126-.273a1.995 1.995 0 01-.773-.765 2.234 2.234 0 01-.281-1.118c0-.413.094-.783.281-1.11.188-.327.445-.582.773-.764a2.304 2.304 0 011.126-.274c.365 0 .69.072.973.217.29.14.518.346.684.62l-.426.29a1.303 1.303 0 00-.531-.467 1.542 1.542 0 00-.7-.161c-.306 0-.582.07-.829.209a1.447 1.447 0 00-.57.58 1.804 1.804 0 00-.202.86c0 .327.067.617.201.869.14.247.33.44.571.58.247.133.523.2.829.2.252 0 .485-.05.7-.153a1.29 1.29 0 00.53-.466l.427.29a1.645 1.645 0 01-.684.627c-.29.14-.614.21-.973.21zm6.36-4.272v4.232h-.572v-1.762a3.56 3.56 0 01-1.44.322c-.51 0-.906-.116-1.19-.346-.285-.236-.427-.587-.427-1.054v-1.392h.571v1.36c0 .316.102.558.306.724.204.16.485.241.845.241.397 0 .842-.104 1.335-.314v-2.01h.572zm3.48-.032c.553 0 .976.14 1.271.418.295.274.443.681.443 1.223v2.623h-.547v-.66c-.13.22-.32.392-.572.515a1.96 1.96 0 01-.885.185c-.471 0-.847-.112-1.126-.338a1.091 1.091 0 01-.418-.893c0-.36.129-.649.386-.869.263-.22.678-.33 1.247-.33h1.343v-.257c0-.365-.101-.64-.305-.829-.204-.193-.502-.29-.893-.29a2.21 2.21 0 00-.773.138 1.89 1.89 0 00-.635.362l-.258-.427c.215-.182.472-.322.773-.418.3-.102.616-.153.95-.153zm-.201 3.854c.322 0 .598-.073.829-.218.23-.15.402-.364.514-.643v-.692h-1.327c-.724 0-1.086.252-1.086.756a.7.7 0 00.282.587c.187.14.45.21.788.21zm5.607.45c-.418 0-.793-.091-1.126-.273a1.996 1.996 0 01-.772-.765 2.235 2.235 0 01-.282-1.118c0-.413.094-.783.282-1.11.188-.327.445-.582.772-.764a2.304 2.304 0 011.126-.274c.365 0 .69.072.974.217.29.14.517.346.684.62l-.427.29a1.303 1.303 0 00-.53-.467 1.543 1.543 0 00-.7-.161c-.306 0-.582.07-.83.209a1.447 1.447 0 00-.57.58 1.804 1.804 0 00-.201.86c0 .327.067.617.2.869.14.247.33.44.572.58.246.133.523.2.828.2.252 0 .486-.05.7-.153.215-.102.392-.257.531-.466l.427.29a1.644 1.644 0 01-.684.627c-.29.14-.614.21-.974.21zm6.064-3.765h-1.6v3.725h-.572v-3.725h-1.601v-.507h3.773v.507zm4.428-.507v4.232h-.57v-3.725H49.19l-.056 1.046c-.043.88-.145 1.555-.306 2.027-.161.472-.448.708-.861.708a1.62 1.62 0 01-.41-.064l.04-.49c.096.02.163.031.201.031a.54.54 0 00.499-.305c.113-.204.188-.456.225-.757.038-.3.07-.697.097-1.19l.072-1.513h3.097zm2.026 0h.572v3.363l2.823-3.363h.507v4.232h-.57v-3.363l-2.817 3.363h-.515v-4.232zm8.637 2.044c.574.134.86.48.86 1.037 0 .37-.136.655-.41.853-.273.199-.68.298-1.223.298h-1.922v-4.232h1.866c.483 0 .86.094 1.134.282.274.188.41.456.41.804a.95.95 0 01-.192.596c-.124.16-.298.281-.523.362zm-2.14-.161h1.27c.328 0 .577-.062.749-.185a.617.617 0 00.266-.54c0-.235-.089-.412-.266-.53-.172-.118-.421-.177-.748-.177H60.31v1.432zm1.343 1.898c.365 0 .638-.059.82-.177.183-.118.274-.303.274-.555 0-.252-.083-.437-.249-.555-.166-.123-.43-.185-.788-.185h-1.4v1.472h1.343zm5.176-2.284c.531.005.936.123 1.215.354.28.23.419.563.419.997 0 .45-.15.797-.45 1.038-.301.241-.73.36-1.288.354l-1.674-.008v-4.232h.572v1.48l1.206.017zm2.342-1.497h.57v4.232h-.57v-4.232zm-2.478 3.806c.391.005.686-.073.885-.234.203-.166.305-.407.305-.724 0-.31-.099-.542-.297-.692-.199-.15-.496-.228-.893-.233l-1.07-.016v1.882l1.07.017zm5.077-3.806h.572v3.363l2.823-3.363h.507v4.232h-.57v-3.363l-2.817 3.363h-.515v-4.232zm1.923-.611c-.365 0-.654-.091-.869-.274-.214-.182-.324-.44-.33-.772h.41a.67.67 0 00.226.507.84.84 0 00.563.185c.23 0 .418-.062.563-.185a.659.659 0 00.234-.507h.41c-.005.332-.118.59-.338.772-.215.183-.504.274-.869.274zm8.578.716c.391 0 .74.088 1.046.265.31.172.552.416.724.732.171.311.257.668.257 1.07 0 .413-.091.78-.273 1.103a1.875 1.875 0 01-.748.74 2.266 2.266 0 01-1.11.265c-.703 0-1.248-.246-1.634-.74-.386-.493-.58-1.175-.58-2.043 0-.907.172-1.601.516-2.084.348-.483.89-.81 1.625-.982l1.898-.434.097.523-1.786.41c-.606.134-1.051.373-1.335.716-.285.338-.44.84-.467 1.505.172-.328.41-.582.716-.765a1.973 1.973 0 011.054-.281zm-.089 3.7c.295 0 .558-.066.789-.2a1.43 1.43 0 00.547-.58c.134-.247.201-.526.201-.837 0-.31-.064-.584-.193-.82a1.344 1.344 0 00-.547-.547 1.555 1.555 0 00-.797-.201 1.6 1.6 0 00-.804.2c-.23.13-.413.312-.547.548-.129.236-.193.51-.193.82 0 .311.064.59.193.837.134.247.319.44.555.58.236.134.501.2.796.2zm3.743-3.805h.571v3.363l2.824-3.363h.507v4.232h-.572v-3.363l-2.815 3.363h-.515v-4.232zm9.4 0v4.232h-.57v-3.725h-2.028l-.057 1.046c-.043.88-.144 1.555-.305 2.027-.161.472-.448.708-.861.708a1.62 1.62 0 01-.41-.064l.04-.49c.096.02.163.031.2.031a.54.54 0 00.5-.305c.112-.204.187-.456.225-.757.037-.3.07-.697.096-1.19l.073-1.513h3.097zm5.727 2.293h-3.54c.032.44.201.797.507 1.07.306.268.692.402 1.159.402.262 0 .504-.045.724-.136.22-.097.41-.236.571-.419l.322.37a1.81 1.81 0 01-.708.515c-.28.118-.588.177-.925.177-.435 0-.821-.091-1.159-.273a2.037 2.037 0 01-.78-.773 2.191 2.191 0 01-.282-1.11c0-.413.089-.783.266-1.11a1.99 1.99 0 01.74-.764 2.08 2.08 0 011.062-.274c.391 0 .742.091 1.054.273.311.183.555.438.732.765.177.322.265.692.265 1.11l-.008.177zm-2.043-1.834c-.408 0-.751.131-1.03.394-.274.257-.43.595-.467 1.014h3.001c-.037-.419-.196-.757-.475-1.014-.273-.263-.616-.394-1.03-.394zm6.506.048h-1.601v3.725h-.571v-3.725h-1.601v-.507h3.773v.507z" fill="#fff"/></svg>