<svg width="25" height="25" fill="none" xmlns="http://www.w3.org/2000/svg"><path fill-rule="evenodd" clip-rule="evenodd" d="M12.5 1.351c-6.15 0-11.15 5.002-11.15 11.15 0 6.147 5 11.148 11.149 11.148 1.738 0 3.416-.4 4.989-1.19a.671.671 0 01.43-.06l5.53 1.069-1.141-5.342a.666.666 0 01.065-.455 11.027 11.027 0 001.275-5.17c0-6.148-5.002-11.15-11.148-11.15zM24.322 25a.67.67 0 01-.127-.012l-6.308-1.218A12.36 12.36 0 0112.5 25C5.608 25 0 19.393 0 12.5S5.608 0 12.5 0 25 5.607 25 12.5a12.33 12.33 0 01-1.319 5.579l1.303 6.104a.677.677 0 01-.662.817z" fill="#000"/></svg>