<svg width="25" height="25" fill="none" xmlns="http://www.w3.org/2000/svg"><path fill-rule="evenodd" clip-rule="evenodd" d="M7.08 1.772c-1.46-.026-2.869.591-3.912 1.714-2.263 2.489-2.033 6.802.491 9.64l.059.067 8.78 9.663 8.789-9.667.055-.063c2.524-2.845 2.744-7.159.488-9.637-2.256-2.478-6.184-2.24-8.76.534a.792.792 0 01-1.141 0C10.64 2.607 8.9 1.798 7.079 1.773M12.499 25a.767.767 0 01-.573-.26L2.551 14.43l-.068-.079C-.63 10.84-.853 5.395 2.024 2.231c2.719-2.99 7.277-2.948 10.477-.032C15.7-.717 20.26-.756 22.975 2.23c2.877 3.164 2.663 8.611-.48 12.139l-.063.077-9.363 10.294a.767.767 0 01-.571.259" fill="#000"/></svg>