<svg width="250" height="254" fill="none" xmlns="http://www.w3.org/2000/svg"><path d="M29.547 187.397C12.17 204.317 34.975 222.485 0 247.103c0 0 20.582 6.918 39.21-16.656 6.405-8.107 13.805-11.514 13.805-11.514 2.535 1.521.598 9.772-8.4 16.598 0 0 14.038.359 22.808-8.457 8.77-8.817 14.732-21.515 14.732-21.515 6.005 10.621-9.03 24.074-9.03 24.074s14.193-3.718 31.028-20.65c13.095-13.169 22.407-45.896 3.645-64.764-18.763-18.868-52.288-15.426-68.715 1.094-7.19 7.23-14.553 18.523-15.498 27.802 0 0 13.83-15.016 18.72-8.688 0 0-23.392 14.219-27.152 27.722.002 0 11.644-6.987 14.394-4.752z" fill="url(#paint0_linear)"/><path d="M16.622 200.312c-18.205 7.354-6.482 22.704-14.3 30.611 0 0 10.478-5.762 10.308-17.038-.138-9.184 3.992-13.573 3.992-13.573z" fill="url(#paint1_linear)"/><path d="M20.877 253.693c4.662-.558 12.547-14.202 23.252-11.936 0 0-9.597 14.053-23.252 11.936z" fill="url(#paint2_linear)"/><path opacity=".5" d="M78.438 226.292c5.71-2.147 15.445-6.979 25.715-17.306 11.5-11.565 21.087-44.403 2.242-63.354-18.42-18.523-50.717-14.785-66.207.795-5.595 5.626-11.513 14.045-13.865 21.829 3.375-3.022 8.307-6.75 12.445-7.142 2.122-.202 3.867.5 5.045 2.023l1.182 1.529-2.05 1.249c-.202.124-18.377 11.281-24.52 22.591 4.213-2.157 10.055-4.532 12.43-2.602l1.35 1.099-1.58 1.541c-6.487 6.315-6.797 12.854-7.157 20.422-.515 10.808-1.095 22.983-19.378 37.094 6.213.835 20.448.433 33.828-16.504 6.7-8.48 14.377-12.078 14.7-12.226l.877-.402.683.409c1.27.757 1.835 2.376 1.6 4.551-.323 2.971-2.203 7.273-6.4 11.554 4.572-.59 11.835-2.338 16.942-7.474 8.368-8.414 14.193-20.708 14.25-20.831l1.633-3.477 1.56 2.758c4.05 7.167-.458 15.909-5.325 21.874z" fill="url(#paint3_linear)"/><path d="M2.325 230.923c5.133-4.199 10.378-12.402 10.308-17.038-.065-4.241 1.092-10.242 3.992-13.573-12.73 5.44-10.97 14.038-9.347 18.295.707 1.862-.25 7.406-4.953 12.316z" fill="url(#paint4_radial)"/><path d="M12.21 243.543c24.155-8.032 30.622-35.621 46.182-40.408 15.56-4.787 11.643 10.177 5.653 16.924 0 0 20.535-20.73 20.662-36.951.128-16.22 21.751 9.101 15.043 22.28 0 0 33.043-33.211 6.645-59.756-26.397-26.546-61.558-.061-61.558-.061s20.016-.819 18.285 13.79c0 0-15.445 5.88-27.59 15.68 0 0 5.968.636 10.05 6.785 0 0-18.162 12.598-17.445 23.466.925 13.953-8.192 35.679-15.927 38.251z" fill="url(#paint5_linear)"/><path d="M29.105 222.521c11.3-2.849 21.25-29.425 37.095-27.954 8.758.812 6.73 8.415 6.73 8.415s6.078-8.704 7.47-20.472c1.393-11.768 23.168-7.743 22.203 14.332 0 0 23.947-31.314-5.095-51.203-32.043-21.942-55.458 5.602-55.458 5.602s21.893-7.334 25.295 10.146c0 0-18.112 5.068-24.775 11.771 0 0 7.75 1.093 9.6 9.417 0 0-17.847 13.121-17.312 18.335 1.29 12.585-5.753 21.611-5.753 21.611z" fill="url(#paint6_linear)"/><path opacity=".5" d="M29.547 187.397C12.17 204.317 34.975 222.485 0 247.103c0 0 20.582 6.918 39.21-16.656 6.405-8.107 13.805-11.514 13.805-11.514 2.535 1.521.598 9.772-8.4 16.598 0 0 14.038.359 22.808-8.457 8.77-8.817 14.732-21.515 14.732-21.515 6.005 10.621-9.03 24.074-9.03 24.074s14.193-3.718 31.028-20.65c13.095-13.169 22.407-45.896 3.645-64.764-18.763-18.868-52.288-15.426-68.715 1.094-7.19 7.23-14.553 18.523-15.498 27.802 0 0 13.83-15.016 18.72-8.688 0 0-23.392 14.219-27.152 27.722.002 0 11.644-6.987 14.394-4.752z" fill="url(#paint7_radial)"/><path opacity=".5" d="M29.547 187.397C12.17 204.317 34.975 222.485 0 247.103c0 0 20.582 6.918 39.21-16.656 6.405-8.107 13.805-11.514 13.805-11.514 2.535 1.521.598 9.772-8.4 16.598 0 0 14.038.359 22.808-8.457 8.77-8.817 14.732-21.515 14.732-21.515 6.005 10.621-9.03 24.074-9.03 24.074s14.193-3.718 31.028-20.65c13.095-13.169 22.407-45.896 3.645-64.764-18.763-18.868-52.288-15.426-68.715 1.094-7.19 7.23-14.553 18.523-15.498 27.802 0 0 13.83-15.016 18.72-8.688 0 0-23.392 14.219-27.152 27.722.002 0 11.644-6.987 14.394-4.752z" fill="url(#paint8_radial)"/><path d="M95.325 214.528c16.92-18.126 26.513-50.547 8.838-68.321-17.675-17.774-50.2-2.841-64.638 10.566 0 0 11.483-4.879 20.573.976 9.09 5.855-16.843 15.898-22.235 31.84 0 0 23.127-13.968 30.372-8.05 7.245 5.918-.102 24.517-7.05 31.503 0 0 16.568-8.52 25.5-19.524 13.583-16.73 8.64 21.01 8.64 21.01z" fill="url(#paint9_radial)"/><path opacity=".5" d="M29.547 187.397C12.17 204.317 34.975 222.485 0 247.103c0 0 20.582 6.918 39.21-16.656 6.405-8.107 13.805-11.514 13.805-11.514 2.535 1.521.598 9.772-8.4 16.598 0 0 14.038.359 22.808-8.457 8.77-8.817 14.732-21.515 14.732-21.515 6.005 10.621-9.03 24.074-9.03 24.074s14.193-3.718 31.028-20.65c13.095-13.169 22.407-45.896 3.645-64.764-18.763-18.868-52.288-15.426-68.715 1.094-7.19 7.23-14.553 18.523-15.498 27.802 0 0 13.83-15.016 18.72-8.688 0 0-23.392 14.219-27.152 27.722.002 0 11.644-6.987 14.394-4.752z" fill="url(#paint10_radial)"/><path opacity=".5" d="M16.622 200.312c-18.205 7.354-6.482 22.704-14.3 30.611 0 0 10.478-5.762 10.308-17.038-.138-9.184 3.992-13.573 3.992-13.573z" fill="url(#paint11_radial)"/><path d="M20.877 253.691c4.662-.558 11.505-10.119 23.252-11.936 0 0-9.597 14.053-23.252 11.936z" fill="url(#paint12_radial)"/><path opacity=".5" d="M20.877 253.693c4.662-.558 12.547-14.202 23.252-11.936 0 0-9.597 14.053-23.252 11.936z" fill="url(#paint13_radial)"/><path opacity=".5" d="M29.547 187.397C12.17 204.317 34.975 222.485 0 247.103c0 0 20.582 6.918 39.21-16.656 6.405-8.107 13.805-11.514 13.805-11.514 2.535 1.521.598 9.772-8.4 16.598 0 0 14.038.359 22.808-8.457 8.77-8.817 14.732-21.515 14.732-21.515 6.005 10.621-9.03 24.074-9.03 24.074s14.193-3.718 31.028-20.65c13.095-13.169 22.407-45.896 3.645-64.764-18.763-18.868-52.288-15.426-68.715 1.094-7.19 7.23-14.553 18.523-15.498 27.802 0 0 13.83-15.016 18.72-8.688 0 0-23.392 14.219-27.152 27.722.002 0 11.644-6.987 14.394-4.752z" fill="url(#paint14_radial)"/><path opacity=".25" d="M29.547 187.397C12.17 204.317 34.975 222.485 0 247.103c0 0 20.582 6.918 39.21-16.656 6.405-8.107 13.805-11.514 13.805-11.514 2.535 1.521.598 9.772-8.4 16.598 0 0 14.038.359 22.808-8.457 8.77-8.817 14.732-21.515 14.732-21.515 6.005 10.621-9.03 24.074-9.03 24.074s14.193-3.718 31.028-20.65c13.095-13.169 22.407-45.896 3.645-64.764-18.763-18.868-52.288-15.426-68.715 1.094-7.19 7.23-14.553 18.523-15.498 27.802 0 0 13.83-15.016 18.72-8.688 0 0-23.392 14.219-27.152 27.722.002 0 11.644-6.987 14.394-4.752z" fill="url(#paint15_radial)"/><path opacity=".75" d="M29.547 187.397C12.17 204.317 34.975 222.485 0 247.103c0 0 20.582 6.918 39.21-16.656 6.405-8.107 13.805-11.514 13.805-11.514 2.535 1.521.598 9.772-8.4 16.598 0 0 14.038.359 22.808-8.457 8.77-8.817 14.732-21.515 14.732-21.515 6.005 10.621-9.03 24.074-9.03 24.074s14.193-3.718 31.028-20.65c13.095-13.169 22.407-45.896 3.645-64.764-18.763-18.868-52.288-15.426-68.715 1.094-7.19 7.23-14.553 18.523-15.498 27.802 0 0 13.83-15.016 18.72-8.688 0 0-23.392 14.219-27.152 27.722.002 0 11.644-6.987 14.394-4.752z" fill="url(#paint16_radial)"/><path d="M169.83 170.74c-1.673-16.656 2.165-34.344 10.922-50.349l2.775-5.071-42.82 28.19-3.59 25.887-16.71 16.153c3.6 14.061 3.743 27.777 3.743 27.777 28.377-17.125 45.68-42.587 45.68-42.587z" fill="url(#paint17_linear)"/><path d="M124.15 213.328s-.103-13.92-3.743-27.777l7.058-6.821c2.152 4.795 6.365 15.509 7.415 27.396-3.393 2.448-6.935 4.962-10.73 7.202z" fill="url(#paint18_linear)"/><path opacity=".75" d="M169.83 170.74c-1.673-16.656 2.165-34.344 10.922-50.349l2.775-5.071-42.82 28.19-3.59 25.887-16.71 16.153c3.6 14.061 3.743 27.777 3.743 27.777 28.377-17.125 45.68-42.587 45.68-42.587z" fill="url(#paint19_radial)"/><path d="M173.995 135.826a94.914 94.914 0 016.755-15.432l1.555-2.843c-.373-.224-.753-.45-1.135-.676l-40.463 26.636-2.425 17.493c9.228-3.766 22.283-11.585 35.713-25.178z" fill="url(#paint20_linear)"/><path d="M127.523 70.914a54.154 54.154 0 01-1.055-2.793c-15.955 7.648-34.013 9.76-51.418 6.491 0 0-25.712 16.937-41.48 46.96 0 0 14.713 1.41 30.115 6.7l15.79-17.128 25.575-1.521c5.723-12.762 12.675-26.594 22.473-38.709z" fill="url(#paint21_linear)"/><path d="M33.572 121.572s14.713 1.411 30.115 6.7l6.75-7.321c-5.412-2.813-17.162-8.309-30.18-10.569a121.893 121.893 0 00-6.685 11.19z" fill="url(#paint22_linear)"/><path opacity=".75" d="M127.523 70.914a54.154 54.154 0 01-1.055-2.793c-15.955 7.648-34.013 9.76-51.418 6.491 0 0-25.712 16.937-41.48 46.96 0 0 14.713 1.41 30.115 6.7l15.79-17.128 25.575-1.521c5.723-12.762 12.675-26.594 22.473-38.709z" fill="url(#paint23_radial)"/><path d="M126.47 68.121c-6.22 4.814-25.777 23.75-32.58 42.168l11.163-.664c5.72-12.761 14.385-26.892 24.182-39.01l-2.765-2.494z" fill="url(#paint24_linear)"/><path d="M133.205 64.427c6.645 10.842 15.37 21.57 25.135 31.13.465.456.933.91 1.403 1.36 8.242 7.9 17.177 14.949 26.192 20.538l-.015.015c.823-.8 1.65-1.592 2.463-2.411 23.42-23.552 36.955-41.185 48.61-63.675-8.322-16.193-21.982-29.93-38.087-38.301-22.366 11.72-39.901 25.33-63.321 48.882-.81.815-1.595 1.644-2.387 2.469.002-.005.005-.005.007-.007z" fill="url(#paint25_linear)"/><path d="M236.993 51.38c15.85-30.58 13.837-46.952 11.22-49.584-2.618-2.632-18.895-4.653-49.308 11.283 16.105 8.372 29.765 22.108 38.088 38.301z" fill="url(#paint26_linear)"/><path d="M106.393 144.416c8.415 8.462 16.14 14.629 18.215 14.644 18.838-8.296 41.368-22.206 61.33-41.607-9.015-5.589-17.95-12.638-26.192-20.537-.47-.45-.938-.903-1.403-1.36-9.762-9.561-18.49-20.288-25.135-31.131-19.328 20.117-33.138 42.871-41.358 61.86.336 2.328 6.358 9.903 14.543 18.131z" fill="url(#paint27_linear)"/><path opacity=".75" d="M106.393 144.416c8.415 8.462 16.14 14.629 18.215 14.644 18.838-8.296 41.368-22.206 61.33-41.607-9.015-5.589-17.95-12.638-26.192-20.537-.47-.45-.938-.903-1.403-1.36-9.762-9.561-18.49-20.288-25.135-31.131-19.328 20.117-33.138 42.871-41.358 61.86.336 2.328 6.358 9.903 14.543 18.131z" fill="url(#paint28_radial)"/><path opacity=".5" d="M159.743 96.916c-.47-.45-.938-.903-1.403-1.36-9.762-9.561-18.49-20.288-25.135-31.131-.487.507-.955 1.023-1.437 1.533 13.535 25.721 54.785 50.152 23.287 63.122-20.677 8.515-29.94 18.584-34.91 27.567 2.108 1.533 3.683 2.406 4.46 2.411 18.838-8.297 41.368-22.207 61.33-41.608-9.015-5.586-17.947-12.635-26.192-20.534z" fill="url(#paint29_radial)"/><path d="M106.393 144.415c-8.185-8.231-14.208-15.803-14.545-18.131l-11.59 5.121c-1.368 1.375 6.272 11.283 17.062 22.133 10.79 10.851 20.645 18.531 22.01 17.159l5.278-11.638c-2.075-.015-9.803-6.182-18.215-14.644z" fill="url(#paint30_linear)"/><path d="M106.393 144.415c-8.185-8.231-14.208-15.803-14.545-18.131l-11.59 5.121c-1.368 1.375 6.272 11.283 17.062 22.133 10.79 10.851 20.645 18.531 22.01 17.159l5.278-11.638c-2.075-.015-9.803-6.182-18.215-14.644z" fill="url(#paint31_linear)"/><path d="M233.798 57.34c.113-.216 3.085-5.742 3.198-5.958-8.323-16.193-21.983-29.93-38.088-38.301-.217.113-.425.231-.64.344 15.765 9.033 33.643 29.339 35.53 43.915z" fill="url(#paint32_linear)"/><path opacity=".75" d="M248.213 1.798c-2.617-2.632-18.895-4.653-49.308 11.283-22.365 11.72-39.9 25.331-63.32 48.883-.81.814-1.595 1.644-2.387 2.469l.007-.008c-19.327 20.12-33.137 42.872-41.357 61.86.337 2.328 6.36 9.9 14.545 18.131 8.415 8.462 16.14 14.629 18.215 14.644 18.837-8.296 41.367-22.206 61.33-41.607l-.015.015c.822-.799 1.647-1.591 2.462-2.411 23.42-23.551 36.955-41.184 48.611-63.675C252.843 20.8 250.831 4.43 248.213 1.798z" fill="url(#paint33_radial)"/><path d="M88.442 182.554c24.928-20.213 44.465-42.809 44.97-43.397l-3.895-3.917s-20.33 22.347-44.645 43.774l3.57 3.54z" fill="url(#paint34_linear)"/><path d="M129.518 135.239c4.527-8.676 12.198-19.572 22-31.297-.24-.224-.482-.44-.72-.666-10.625 10.136-21.13 19.32-30.608 27.425l-10.975 16.203-16.542 16.369c-2.865 7.318-7.8 15.74-7.8 15.74 24.315-21.427 44.645-43.774 44.645-43.774z" fill="url(#paint35_linear)"/><path d="M93.507 171.225c.015-.025 5.808-10.566 5.275-13.995l-6.11 6.046c-2.865 7.318-7.8 15.741-7.8 15.741a529.262 529.262 0 008.635-7.792z" fill="url(#paint36_linear)"/><path d="M133.438 139.13c3.25-9.985 10.635-21.206 20.02-33.401-.65-.583-1.295-1.184-1.938-1.785-9.802 11.725-17.472 22.621-22 31.297 0 0-20.33 22.347-44.645 43.775l3.57 3.539c25.255-20.479 44.993-43.425 44.993-43.425z" fill="url(#paint37_linear)"/><path d="M88.442 182.554c24.928-20.213 44.465-42.809 44.97-43.397l-3.895-3.917s-20.33 22.347-44.645 43.774l3.57 3.54z" fill="url(#paint38_linear)"/><path opacity=".75" d="M129.518 135.239c4.527-8.676 12.198-19.572 22-31.297-.24-.224-.482-.44-.72-.666-10.625 10.136-21.13 19.32-30.608 27.425l-10.975 16.203-16.542 16.369c-2.865 7.318-7.8 15.74-7.8 15.74 24.315-21.427 44.645-43.774 44.645-43.774z" fill="url(#paint39_radial)"/><path opacity=".75" d="M248.213 1.798c-2.617-2.632-18.895-4.653-49.308 11.283-22.365 11.72-39.9 25.331-63.32 48.883-.81.814-1.595 1.644-2.387 2.469l.007-.008c-19.327 20.12-33.137 42.872-41.357 61.86.337 2.328 6.36 9.9 14.545 18.131 8.415 8.462 16.14 14.629 18.215 14.644 18.837-8.296 41.367-22.206 61.33-41.607l-.015.015c.822-.799 1.647-1.591 2.462-2.411 23.42-23.551 36.955-41.184 48.611-63.675C252.843 20.8 250.831 4.43 248.213 1.798z" fill="url(#paint40_radial)"/><g opacity=".16" fill="#000"><path opacity=".16" d="M230.387 63.448a.183.183 0 01-.15-.078 167.777 167.777 0 00-6.153-8.132.185.185 0 11.287-.234 167.836 167.836 0 016.166 8.153c.06.083.04.2-.043.261a.229.229 0 01-.107.03z"/><path opacity=".16" d="M232.466 43.092a.187.187 0 00-.058-.259.188.188 0 00-.257.058c-.463.734-.94 1.48-1.43 2.238-12.468 19.29-25.365 35.045-45.948 56.125a159.34 159.34 0 01-19.162-16.394c-4.033-4.055-7.775-8.314-11.268-12.645 21.195-21.078 37.003-35.033 55.033-48.569.992-.746 1.967-1.47 2.92-2.17a.19.19 0 00.04-.26.182.182 0 00-.26-.041c-.953.701-1.925 1.425-2.923 2.172-18.035 13.54-33.852 27.501-55.047 48.584-4.43-5.521-8.412-11.168-11.7-16.791a.182.182 0 00-.255-.066.186.186 0 00-.065.257c3.302 5.648 7.305 11.323 11.755 16.866-1.355 1.35-2.66 2.632-4.06 4.043-.64.64-1.268 1.284-1.895 1.928l-.513.523a350.14 350.14 0 00-2.307 2.378.187.187 0 00.135.317c.047 0 .097-.02.135-.058a511 511 0 012.31-2.38c.005-.003.007-.008.01-.01l.495-.506a311.13 311.13 0 011.892-1.926c1.395-1.403 2.69-2.677 4.038-4.02 3.497 4.332 7.24 8.593 11.27 12.648a159.587 159.587 0 0019.267 16.475c.008.03-.022.06 0 .085a.188.188 0 00.13.053c.015 0 .025-.013.038-.015 3.395 2.459 6.807 4.789 10.215 6.803a.187.187 0 00.255-.068.19.19 0 00-.065-.256c-3.373-1.992-6.748-4.297-10.11-6.728 20.58-21.08 33.485-36.846 45.957-56.148.485-.76.963-1.506 1.428-2.243z"/></g><path opacity=".75" d="M119.355 153.781c17.113-10.028 38.228-25.364 58.08-44.875l-.015.015" fill="url(#paint41_radial)"/><path d="M195.885 66.477c-9.537 8.837-23.634 8.908-31.489.156-7.855-8.751-6.493-23.008 3.045-31.845 9.537-8.837 23.634-8.907 31.489-.156 7.855 8.752 6.493 23.009-3.045 31.845z" fill="url(#paint42_linear)"/><path d="M191.783 61.538c-7.817 7.246-19.377 7.303-25.817.128-6.44-7.172-5.323-18.862 2.495-26.105 7.817-7.246 19.377-7.304 25.817-.129 6.44 7.173 5.323 18.86-2.495 26.106z" fill="url(#paint43_linear)"/><path d="M189.985 59.594c-6.972 6.46-17.277 6.511-23.02.115-5.742-6.395-4.744-16.819 2.225-23.277 6.97-6.459 17.278-6.512 23.02-.116 5.743 6.396 4.748 16.817-2.225 23.278z" fill="url(#paint44_radial)"/><path opacity=".5" d="M189.985 59.594c-6.972 6.46-17.277 6.511-23.02.115-5.742-6.395-4.744-16.819 2.225-23.277 6.97-6.459 17.278-6.512 23.02-.116 5.743 6.396 4.748 16.817-2.225 23.278z" fill="url(#paint45_radial)"/><path opacity=".5" d="M190.821 41.042c2.632 2.932 4.045 6.582 4.325 10.396 1.642-5.295.74-11.032-2.935-15.125-5.743-6.395-16.048-6.345-23.02.116a19.01 19.01 0 00-1.9 2.064c7.862-4.782 17.697-3.95 23.53 2.55z" fill="#000"/><path d="M192.213 36.313c-5.742-6.395-16.047-6.345-23.02.116-6.972 6.461-7.967 16.882-2.225 23.277.598.664 1.18 1.157.82.817-5.14-5.168-3.565-15.763 3.063-22.427 5.265-5.295 15.532-7.288 21.395-1.742" fill="url(#paint46_linear)"/><path opacity=".5" d="M192.213 36.315l.033.04c-5.863-5.546-16.13-3.552-21.395 1.742-6.338 6.374-8.04 16.324-3.688 21.704.688.35.95 1.036.623.727-.225-.227-.423-.478-.623-.727-.065-.033-.127-.065-.197-.093 5.742 6.396 16.047 6.345 23.02-.116 6.972-6.458 7.97-16.879 2.227-23.277z" fill="url(#paint47_radial)"/><path d="M237.097 51.46a.28.28 0 01-.247-.152c-8.328-16.205-21.772-29.733-37.852-38.09a.28.28 0 01.255-.497c16.182 8.412 29.712 22.023 38.092 38.331a.28.28 0 01-.12.377.282.282 0 01-.128.03zm-51.162 66.272c-.05 0-.1-.013-.145-.043-8.835-5.475-17.91-12.59-26.24-20.572-.47-.45-.94-.905-1.405-1.363-9.925-9.719-18.63-20.502-25.178-31.184a.28.28 0 01.475-.294c6.523 10.645 15.2 21.39 25.093 31.076.465.455.932.908 1.4 1.358 8.303 7.954 17.343 15.044 26.145 20.499a.28.28 0 01.093.385.273.273 0 01-.238.138z" fill="#008EE6"/><defs><linearGradient id="paint0_linear" x1="103.643" y1="134.414" x2="-15.451" y2="290.761" gradientUnits="userSpaceOnUse"><stop stop-color="red"/><stop offset=".232" stop-color="#FF1500"/><stop offset=".737" stop-color="#FF3D00"/><stop offset=".999" stop-color="#FF4C00"/></linearGradient><linearGradient id="paint1_linear" x1="80.929" y1="119.642" x2="-36.731" y2="274.105" gradientUnits="userSpaceOnUse"><stop stop-color="red"/><stop offset=".232" stop-color="#FF1500"/><stop offset=".737" stop-color="#FF3D00"/><stop offset=".999" stop-color="#FF4C00"/></linearGradient><linearGradient id="paint2_linear" x1="114.29" y1="139.158" x2="-6.403" y2="297.603" gradientUnits="userSpaceOnUse"><stop stop-color="red"/><stop offset=".232" stop-color="#FF1500"/><stop offset=".737" stop-color="#FF3D00"/><stop offset=".999" stop-color="#FF4C00"/></linearGradient><linearGradient id="paint3_linear" x1="80.214" y1="159.027" x2="3.365" y2="317.798" gradientUnits="userSpaceOnUse"><stop stop-color="#FF8000"/><stop offset=".639" stop-color="#FF5B00"/><stop offset=".999" stop-color="#FF4C00"/></linearGradient><linearGradient id="paint5_linear" x1="18.456" y1="253.8" x2="87.696" y2="155.072" gradientUnits="userSpaceOnUse"><stop stop-color="#FF8000"/><stop offset=".023" stop-color="#FE7F02" stop-opacity=".977"/><stop offset=".666" stop-color="#ED582A" stop-opacity=".334"/><stop offset="1" stop-color="#E74939" stop-opacity="0"/></linearGradient><linearGradient id="paint6_linear" x1="97.411" y1="151.31" x2="34.956" y2="206.955" gradientUnits="userSpaceOnUse"><stop stop-color="#FFBC47"/><stop offset=".187" stop-color="#FFB137" stop-opacity=".813"/><stop offset=".722" stop-color="#FF940F" stop-opacity=".278"/><stop offset="1" stop-color="#FF8900" stop-opacity="0"/></linearGradient><linearGradient id="paint17_linear" x1="97.696" y1="220.381" x2="174.314" y2="138.214" gradientUnits="userSpaceOnUse"><stop stop-color="#BD2719"/><stop offset=".215" stop-color="#D41A10"/><stop offset=".505" stop-color="#EC0C07"/><stop offset=".774" stop-color="#FA0302"/><stop offset="1" stop-color="red"/></linearGradient><linearGradient id="paint18_linear" x1="141.974" y1="181.684" x2="117.949" y2="205.147" gradientUnits="userSpaceOnUse"><stop stop-color="#FC8D41"/><stop offset=".09" stop-color="#FC7837"/><stop offset=".294" stop-color="#FD4D24"/><stop offset=".492" stop-color="#FE2C14"/><stop offset=".68" stop-color="#FF1409"/><stop offset=".854" stop-color="#FF0502"/><stop offset="1" stop-color="red"/></linearGradient><linearGradient id="paint20_linear" x1="143.755" y1="155.512" x2="262.557" y2="18.585" gradientUnits="userSpaceOnUse"><stop stop-color="#BD2719"/><stop offset=".215" stop-color="#D41A10"/><stop offset=".505" stop-color="#EC0C07"/><stop offset=".774" stop-color="#FA0302"/><stop offset="1" stop-color="red"/></linearGradient><linearGradient id="paint21_linear" x1="24.427" y1="124.506" x2="96.504" y2="89.329" gradientUnits="userSpaceOnUse"><stop stop-color="#BD2719"/><stop offset=".215" stop-color="#D41A10"/><stop offset=".505" stop-color="#EC0C07"/><stop offset=".774" stop-color="#FA0302"/><stop offset="1" stop-color="red"/></linearGradient><linearGradient id="paint22_linear" x1="65.483" y1="103.551" x2="42.722" y2="130.456" gradientUnits="userSpaceOnUse"><stop stop-color="#FC8D41"/><stop offset=".09" stop-color="#FC7837"/><stop offset=".294" stop-color="#FD4D24"/><stop offset=".492" stop-color="#FE2C14"/><stop offset=".68" stop-color="#FF1409"/><stop offset=".854" stop-color="#FF0502"/><stop offset="1" stop-color="red"/></linearGradient><linearGradient id="paint24_linear" x1="123.884" y1="88.559" x2="7.886" y2="93.954" gradientUnits="userSpaceOnUse"><stop stop-color="#BD2719"/><stop offset=".215" stop-color="#D41A10"/><stop offset=".505" stop-color="#EC0C07"/><stop offset=".774" stop-color="#FA0302"/><stop offset="1" stop-color="red"/></linearGradient><linearGradient id="paint25_linear" x1="165.85" y1="38.55" x2="212.79" y2="85.229" gradientUnits="userSpaceOnUse"><stop stop-color="#BBCACC"/><stop offset=".372" stop-color="#fff"/><stop offset="1" stop-color="#99AFB3"/></linearGradient><linearGradient id="paint26_linear" x1="244.976" y1="35.373" x2="219.385" y2="2.346" gradientUnits="userSpaceOnUse"><stop stop-color="#008EE6"/><stop offset=".688" stop-color="#80DAFE"/><stop offset=".733" stop-color="#76D5FB"/><stop offset=".807" stop-color="#5CC8F3"/><stop offset=".903" stop-color="#32B2E6"/><stop offset="1" stop-color="#0099D6"/></linearGradient><linearGradient id="paint27_linear" x1="155.564" y1="140.193" x2="102.22" y2="87.431" gradientUnits="userSpaceOnUse"><stop stop-color="#008EE6"/><stop offset=".688" stop-color="#80DAFE"/><stop offset=".733" stop-color="#76D5FB"/><stop offset=".807" stop-color="#5CC8F3"/><stop offset=".903" stop-color="#32B2E6"/><stop offset="1" stop-color="#0099D6"/></linearGradient><linearGradient id="paint30_linear" x1="86.878" y1="125.832" x2="120.387" y2="169.585" gradientUnits="userSpaceOnUse"><stop/><stop offset=".196" stop-color="#4D4D4C"/><stop offset=".765"/></linearGradient><linearGradient id="paint31_linear" x1="86.878" y1="125.832" x2="120.387" y2="169.585" gradientUnits="userSpaceOnUse"><stop stop-opacity="0"/><stop offset=".198" stop-color="#CFDCDE" stop-opacity=".5"/><stop offset=".765" stop-opacity="0"/></linearGradient><linearGradient id="paint32_linear" x1="156.56" y1="21.483" x2="232.904" y2="38.817" gradientUnits="userSpaceOnUse"><stop stop-color="#BBCACC"/><stop offset=".372" stop-color="#fff"/><stop offset="1" stop-color="#99AFB3"/></linearGradient><linearGradient id="paint34_linear" x1="82.841" y1="175.845" x2="170.808" y2="119.443" gradientUnits="userSpaceOnUse"><stop stop-color="#BD2719"/><stop offset=".215" stop-color="#D41A10"/><stop offset=".505" stop-color="#EC0C07"/><stop offset=".774" stop-color="#FA0302"/><stop offset="1" stop-color="red"/></linearGradient><linearGradient id="paint35_linear" x1="68.598" y1="178.842" x2="114.005" y2="144.464" gradientUnits="userSpaceOnUse"><stop stop-color="#BD2719"/><stop offset=".215" stop-color="#D41A10"/><stop offset=".505" stop-color="#EC0C07"/><stop offset=".774" stop-color="#FA0302"/><stop offset="1" stop-color="red"/></linearGradient><linearGradient id="paint36_linear" x1="111.613" y1="149.696" x2="85.593" y2="173.864" gradientUnits="userSpaceOnUse"><stop stop-color="#FC8D41"/><stop offset=".09" stop-color="#FC7837"/><stop offset=".294" stop-color="#FD4D24"/><stop offset=".492" stop-color="#FE2C14"/><stop offset=".68" stop-color="#FF1409"/><stop offset=".854" stop-color="#FF0502"/><stop offset="1" stop-color="red"/></linearGradient><linearGradient id="paint37_linear" x1="110.765" y1="166.545" x2="141.748" y2="78.378" gradientUnits="userSpaceOnUse"><stop stop-color="#BD2719"/><stop offset=".215" stop-color="#D41A10"/><stop offset=".505" stop-color="#EC0C07"/><stop offset=".774" stop-color="#FA0302"/><stop offset="1" stop-color="red"/></linearGradient><linearGradient id="paint38_linear" x1="82.841" y1="175.845" x2="170.808" y2="119.443" gradientUnits="userSpaceOnUse"><stop stop-color="#BD2719"/><stop offset=".215" stop-color="#D41A10"/><stop offset=".505" stop-color="#EC0C07"/><stop offset=".774" stop-color="#FA0302"/><stop offset="1" stop-color="red"/></linearGradient><linearGradient id="paint42_linear" x1="169.375" y1="77.242" x2="194.087" y2="24.324" gradientUnits="userSpaceOnUse"><stop stop-color="#BD2719"/><stop offset=".215" stop-color="#D41A10"/><stop offset=".505" stop-color="#EC0C07"/><stop offset=".774" stop-color="#FA0302"/><stop offset="1" stop-color="red"/></linearGradient><linearGradient id="paint43_linear" x1="186.827" y1="26.168" x2="173.356" y2="70.641" gradientUnits="userSpaceOnUse"><stop stop-color="#FC8D41"/><stop offset=".09" stop-color="#FC7837"/><stop offset=".294" stop-color="#FD4D24"/><stop offset=".492" stop-color="#FE2C14"/><stop offset=".68" stop-color="#FF1409"/><stop offset=".854" stop-color="#FF0502"/><stop offset="1" stop-color="red"/></linearGradient><linearGradient id="paint46_linear" x1="178.188" y1="34.794" x2="179.816" y2="6.074" gradientUnits="userSpaceOnUse"><stop stop-color="#BD2719"/><stop offset=".042" stop-color="#B42717"/><stop offset=".257" stop-color="#89250F"/><stop offset=".465" stop-color="#682408"/><stop offset=".663" stop-color="#502304"/><stop offset=".846" stop-color="#412201"/><stop offset="1" stop-color="#3C2200"/></linearGradient><radialGradient id="paint4_radial" cx="0" cy="0" r="1" gradientUnits="userSpaceOnUse" gradientTransform="matrix(-43.43026 -43.6735 55.45754 -55.14866 -28.273 242.05)"><stop offset=".001" stop-color="#FFED1C" stop-opacity=".6"/><stop offset=".948" stop-color="#FFED1C" stop-opacity=".026"/><stop offset=".991" stop-color="#FFED1C" stop-opacity="0"/></radialGradient><radialGradient id="paint7_radial" cx="0" cy="0" r="1" gradientUnits="userSpaceOnUse" gradientTransform="rotate(-134.84 75.82 66.773) scale(47.6446 49.1091)"><stop offset=".001" stop-color="#FFBC47"/><stop offset=".294" stop-color="#FFBF4B" stop-opacity=".707"/><stop offset=".562" stop-color="#FEC656" stop-opacity=".438"/><stop offset=".82" stop-color="#FCD368" stop-opacity=".18"/><stop offset="1" stop-color="#FBE07A" stop-opacity="0"/></radialGradient><radialGradient id="paint8_radial" cx="0" cy="0" r="1" gradientUnits="userSpaceOnUse" gradientTransform="rotate(-134.84 75.31 68.019) scale(46.1765 47.5958)"><stop offset=".001" stop-color="#fff"/><stop offset="1" stop-color="#fff" stop-opacity="0"/></radialGradient><radialGradient id="paint9_radial" cx="0" cy="0" r="1" gradientUnits="userSpaceOnUse" gradientTransform="matrix(-39.99818 -40.2222 59.47447 -59.14322 102.099 176.055)"><stop offset=".001" stop-color="#FFED1C" stop-opacity=".6"/><stop offset=".948" stop-color="#FFED1C" stop-opacity=".026"/><stop offset=".991" stop-color="#FFED1C" stop-opacity="0"/></radialGradient><radialGradient id="paint10_radial" cx="0" cy="0" r="1" gradientUnits="userSpaceOnUse" gradientTransform="matrix(16.6737 -15.48711 9.9116 10.671 80.211 169.365)"><stop offset=".001" stop-color="#fff"/><stop offset="1" stop-color="#fff" stop-opacity="0"/></radialGradient><radialGradient id="paint11_radial" cx="0" cy="0" r="1" gradientUnits="userSpaceOnUse" gradientTransform="matrix(-14.34896 -14.42932 18.32266 -18.22061 3.634 232.301)"><stop offset=".001" stop-color="#FFED1C"/><stop offset=".2" stop-color="#FFEE2B" stop-opacity=".801"/><stop offset=".584" stop-color="#FFF254" stop-opacity=".417"/><stop offset="1" stop-color="#FFF686" stop-opacity="0"/></radialGradient><radialGradient id="paint12_radial" cx="0" cy="0" r="1" gradientUnits="userSpaceOnUse" gradientTransform="rotate(162.506 -.99 126.412) scale(19.6346 3.99103)"><stop offset=".001" stop-color="#FFED1C" stop-opacity=".6"/><stop offset=".948" stop-color="#FFED1C" stop-opacity=".026"/><stop offset=".991" stop-color="#FFED1C" stop-opacity="0"/></radialGradient><radialGradient id="paint13_radial" cx="0" cy="0" r="1" gradientUnits="userSpaceOnUse" gradientTransform="matrix(14.13228 -12.36221 3.93071 4.49353 22.188 256.6)"><stop offset=".001" stop-color="#FFED1C"/><stop offset=".2" stop-color="#FFEE2B" stop-opacity=".801"/><stop offset=".584" stop-color="#FFF254" stop-opacity=".417"/><stop offset="1" stop-color="#FFF686" stop-opacity="0"/></radialGradient><radialGradient id="paint14_radial" cx="0" cy="0" r="1" gradientUnits="userSpaceOnUse" gradientTransform="matrix(-44.77297 -45.02373 57.17209 -56.85367 4.484 237.858)"><stop offset=".001" stop-color="#FF4C00"/><stop offset=".135" stop-color="#FF5B0C" stop-opacity=".866"/><stop offset=".394" stop-color="#FF842C" stop-opacity=".607"/><stop offset=".749" stop-color="#FFC45F" stop-opacity=".251"/><stop offset="1" stop-color="#FFF686" stop-opacity="0"/></radialGradient><radialGradient id="paint15_radial" cx="0" cy="0" r="1" gradientUnits="userSpaceOnUse" gradientTransform="rotate(-134.84 50.659 79.255) scale(33.7027 42.7964)"><stop offset=".001" stop-color="#FFED1C"/><stop offset=".2" stop-color="#FFEE2B" stop-opacity=".801"/><stop offset=".584" stop-color="#FFF254" stop-opacity=".417"/><stop offset="1" stop-color="#FFF686" stop-opacity="0"/></radialGradient><radialGradient id="paint16_radial" cx="0" cy="0" r="1" gradientUnits="userSpaceOnUse" gradientTransform="rotate(-134.84 75.95 69.65) scale(70.4765 89.4926)"><stop offset=".001" stop-color="#FFED1C"/><stop offset=".2" stop-color="#FFEE2B" stop-opacity=".801"/><stop offset=".584" stop-color="#FFF254" stop-opacity=".417"/><stop offset="1" stop-color="#FFF686" stop-opacity="0"/></radialGradient><radialGradient id="paint19_radial" cx="0" cy="0" r="1" gradientUnits="userSpaceOnUse" gradientTransform="matrix(72.8582 73.26626 -73.26484 72.8568 86.711 209.95)"><stop offset=".001" stop-color="#FFED1C"/><stop offset=".2" stop-color="#FFEE2B" stop-opacity=".801"/><stop offset=".584" stop-color="#FFF254" stop-opacity=".417"/><stop offset="1" stop-color="#FFF686" stop-opacity="0"/></radialGradient><radialGradient id="paint23_radial" cx="0" cy="0" r="1" gradientUnits="userSpaceOnUse" gradientTransform="matrix(78.36555 78.80528 -78.80457 78.36485 76.472 168.76)"><stop offset=".001" stop-color="#FFED1C"/><stop offset=".2" stop-color="#FFEE2B" stop-opacity=".801"/><stop offset=".584" stop-color="#FFF254" stop-opacity=".417"/><stop offset="1" stop-color="#FFF686" stop-opacity="0"/></radialGradient><radialGradient id="paint28_radial" cx="0" cy="0" r="1" gradientUnits="userSpaceOnUse" gradientTransform="rotate(45.16 -129.958 222.626) scale(50.6174 92.6433)"><stop stop-opacity=".75"/><stop offset="1" stop-opacity="0"/></radialGradient><radialGradient id="paint29_radial" cx="0" cy="0" r="1" gradientUnits="userSpaceOnUse" gradientTransform="matrix(35.69183 35.89185 -65.69157 65.32547 178.363 145.839)"><stop stop-opacity=".75"/><stop offset="1" stop-opacity="0"/></radialGradient><radialGradient id="paint33_radial" cx="0" cy="0" r="1" gradientUnits="userSpaceOnUse" gradientTransform="matrix(23.33436 22.8459 -73.99198 75.57395 179.215 117.625)"><stop stop-color="#440063" stop-opacity=".75"/><stop offset="1" stop-color="#420061" stop-opacity="0"/></radialGradient><radialGradient id="paint39_radial" cx="0" cy="0" r="1" gradientUnits="userSpaceOnUse" gradientTransform="matrix(60.30546 -49.19585 16.51625 20.24602 82.166 168.19)"><stop offset=".001" stop-color="#FFED1C"/><stop offset=".2" stop-color="#FFEE2B" stop-opacity=".801"/><stop offset=".584" stop-color="#FFF254" stop-opacity=".417"/><stop offset="1" stop-color="#FFF686" stop-opacity="0"/></radialGradient><radialGradient id="paint40_radial" cx="0" cy="0" r="1" gradientUnits="userSpaceOnUse" gradientTransform="matrix(23.33412 22.846 -73.9925 75.57344 156.689 64.23)"><stop stop-color="#fff" stop-opacity=".5"/><stop offset="1" stop-color="#fff" stop-opacity="0"/></radialGradient><radialGradient id="paint41_radial" cx="0" cy="0" r="1" gradientUnits="userSpaceOnUse" gradientTransform="matrix(5.70105 5.51017 -26.46303 27.37973 149.472 139.162)"><stop stop-color="#440063" stop-opacity=".75"/><stop offset="1" stop-color="#420061" stop-opacity="0"/></radialGradient><radialGradient id="paint44_radial" cx="0" cy="0" r="1" gradientUnits="userSpaceOnUse" gradientTransform="rotate(45.157 28.245 232.814) scale(43.1845 43.1809)"><stop stop-color="#512D00"/><stop offset="1"/></radialGradient><radialGradient id="paint45_radial" cx="0" cy="0" r="1" gradientUnits="userSpaceOnUse" gradientTransform="matrix(37.7808 0 0 37.9929 181.686 40.138)"><stop offset=".487" stop-color="#F5CBC0" stop-opacity="0"/><stop offset="1" stop-color="#E67E62"/></radialGradient><radialGradient id="paint47_radial" cx="0" cy="0" r="1" gradientUnits="userSpaceOnUse" gradientTransform="matrix(51.2321 0 0 51.5194 128.386 30.835)"><stop stop-color="#fff" stop-opacity=".5"/><stop offset="1" stop-color="#fff" stop-opacity="0"/></radialGradient></defs></svg>