<svg width="25" height="25" fill="none" xmlns="http://www.w3.org/2000/svg"><path fill-rule="evenodd" clip-rule="evenodd" d="M4.351 1.788c-.603 0-1.171.2-1.6.565-.43.369-.668.86-.668 1.381V22.84c0 .216.168.308.27.344.1.036.294.071.471-.082l6.151-5.304c1.761-1.519 4.562-1.555 6.378-.087l6.41 5.191a.74.74 0 00.74.111c.125-.045.412-.19.412-.538V3.81c0-1.066-1.01-1.94-2.255-1.945L4.365 1.788H4.35zM2.52 25c-.323 0-.65-.054-.964-.165C.611 24.501 0 23.717 0 22.838V3.735c0-1.002.455-1.942 1.283-2.648C2.105.386 3.193 0 4.351 0h.026l16.294.076C23.058.089 25 1.764 25 3.81v18.664c0 .963-.64 1.798-1.672 2.18-1.028.381-2.178.207-2.994-.453l-6.41-5.19c-.991-.8-2.513-.78-3.472.046l-6.15 5.305A2.737 2.737 0 012.52 25z" fill="#000"/></svg>